<svg xmlns="http://www.w3.org/2000/svg" viewBox="0 0 24 24"><rect width="24" height="24" rx="6" fill="#10263F"/><rect x="10.3" y="4.7" width="3.4" height="2.2" rx=".6" fill="#fff" stroke="#16181D"/><path d="M4.2 17.2Q3 17.2 3 16v-2.8q0-1.6 1.6-1.9l2.5-.4 2-3.2q.4-.6 1.2-.6h3.4q.8 0 1.2.6l2 3.2 2.5.4q1.6.3 1.6 1.9V16q0 1.2-1.2 1.2Z" fill="#F6BE1A" stroke="#16181D" stroke-width="1.4" stroke-linejoin="round"/><path d="M9 10.9 10.4 8.6h1.1v2.3Zm3.5-2.3h1.1l1.4 2.3h-2.5Z" fill="#223445"/><circle cx="7.6" cy="17.2" r="2.1" fill="#16181D"/><circle cx="16.4" cy="17.2" r="2.1" fill="#16181D"/></svg>
